<svg xmlns="http://www.w3.org/2000/svg" viewBox="0 0 120 120" width="100%" height="100%">
  <defs>
    <linearGradient id="dot4Grad" x1="0%" y1="0%" x2="100%" y2="100%">
      <stop offset="0%" stop-color="#3b82f6" />
      <stop offset="50%" stop-color="#1d4ed8" />
      <stop offset="100%" stop-color="#1e3a8a" />
    </linearGradient>
    <linearGradient id="fluidGrad" x1="0%" y1="0%" x2="100%" y2="100%">
      <stop offset="0%" stop-color="#f59e0b" />
      <stop offset="100%" stop-color="#d97706" />
    </linearGradient>
    <filter id="dotGlow" x="-20%" y="-20%" width="140%" height="140%">
      <feDropShadow dx="0" dy="4" stdDeviation="6" flood-color="#3b82f6" flood-opacity="0.35"/>
    </filter>
  </defs>
  <circle cx="60" cy="60" r="54" fill="#0f172a" stroke="rgba(59, 130, 246, 0.25)" stroke-width="2" filter="url(#dotGlow)" />
  <circle cx="60" cy="60" r="48" fill="rgba(59, 130, 246, 0.08)" />

  <!-- Cap -->
  <rect x="52" y="18" width="16" height="10" rx="2" fill="#ef4444" stroke="#fca5a5" stroke-width="1"/>
  <rect x="55" y="28" width="10" height="6" fill="#64748b"/>

  <!-- Bottle Body -->
  <path d="M 44 34 L 76 34 C 82 34 86 40 86 48 L 86 92 C 86 98 80 102 74 102 L 46 102 C 40 102 34 98 34 92 L 34 48 C 34 40 38 34 44 34 Z" fill="url(#dot4Grad)" stroke="#60a5fa" stroke-width="1.5"/>

  <!-- Label Front -->
  <rect x="40" y="50" width="40" height="42" rx="3" fill="#0f172a" stroke="rgba(255,255,255,0.2)" stroke-width="1"/>
  <text x="60" y="66" fill="#f59e0b" font-family="sans-serif" font-weight="900" font-size="10" text-anchor="middle">DOT 4</text>
  <text x="60" y="78" fill="#93c5fd" font-family="sans-serif" font-weight="700" font-size="7" text-anchor="middle">BRAKE</text>
  <circle cx="60" cy="85" r="3" fill="url(#fluidGrad)"/>
</svg>
